<?xml version="1.0" encoding="UTF-8"?>
<!-- Generated by Pixelmator Pro 3.7.1 -->
<svg width="512" height="512" viewBox="0 0 512 512" xmlns="http://www.w3.org/2000/svg">
    <clipPath id="clipPath1">
        <path d="M 80 80 L 432 80 L 432 432 L 80 432 Z"/>
    </clipPath>
    <g id="Group" clip-path="url(#clipPath1)">
        <g id="g1">
            <path id="Path" fill="#ffffff" fill-rule="evenodd" stroke="none" opacity="0.3" d="M 124 217.5 C 124 226.608002 131.391998 234 140.5 234 L 371.5 234 C 380.612701 234 388 226.612701 388 217.5 L 388 206.5 C 388 197.387299 380.612701 190 371.5 190 L 140.5 190 C 131.387299 190 124 197.387299 124 206.5 L 124 217.5 Z M 124 129.5 C 124 138.608002 131.391998 146 140.5 146 L 371.5 146 C 380.612701 146 388 138.612701 388 129.5 L 388 118.5 C 388 109.387299 380.612701 102 371.5 102 L 140.5 102 C 131.387299 102 124 109.387299 124 118.5 L 124 129.5 Z"/>
            <path id="path1" fill="#ffffff" fill-rule="evenodd" stroke="none" d="M 124 393.5 C 124 402.607971 131.391998 410 140.5 410 L 371.5 410 C 380.612701 410 388 402.612671 388 393.5 L 388 382.5 C 388 373.387329 380.612701 366 371.5 366 L 140.5 366 C 131.387299 366 124 373.387329 124 382.5 L 124 393.5 Z M 124 305.5 C 124 314.607971 131.391998 322 140.5 322 L 371.5 322 C 380.612701 322 388 314.612671 388 305.5 L 388 294.5 C 388 285.387329 380.612701 278 371.5 278 L 140.5 278 C 131.387299 278 124 285.387329 124 294.5 L 124 305.5 Z"/>
        </g>
    </g>
</svg>
